<?xml version="1.0" encoding="UTF-8"?>
<svg id="Layer_1" xmlns="http://www.w3.org/2000/svg" version="1.1" viewBox="0 0 595.3 841.9">
  <!-- Generator: Adobe Illustrator 29.0.0, SVG Export Plug-In . SVG Version: 2.1.0 Build 186)  -->
  <defs>
    <style>
      .st0 {
        fill: #dea558;
      }

      .st1 {
        fill: #fff;
      }

      .st2 {
        fill: #044561;
      }

      .st3 {
        fill: #4aa7ad;
      }
    </style>
  </defs>
  <g>
    <path class="st2" d="M52.2,157.2h493.2v493.2c-164.2.6-328.8.7-493.6.5-.5-164.7-.4-329.2.4-493.7Z"/>
    <path class="st1" d="M372.8,229.2c13.5,75.6,33.3,148.9,62.2,220h-88.7c.1-3.7-.2-7.5,0-11.4,3-55.5,0-111.3-1-166.7l-3-41.9s30.5,0,30.5,0Z"/>
    <polygon class="st0" points="290.9 229.2 296 449 252.5 449 272.2 229.2 290.9 229.2"/>
    <polygon class="st3" points="245.7 229.2 240.6 449 221 449 225.9 229.2 245.7 229.2"/>
    <polygon class="st1" points="214 229.2 213.4 449.2 202.2 449 195.2 229.2 214 229.2"/>
    <path class="st3" d="M183.5,229.2l7.9,131.6c2.3,29.2,4.2,58.9,5.9,88.3h-5.5l-28-220h19.8,0Z"/>
    <path class="st1" d="M314.6,449c.7-10.3,2.2-20.7,3-31.1,4.7-62.9,7.8-126,8.9-188.9h7.3l-3.4,220h-15.8Z"/>
    <path class="st3" d="M310.7,229.2v220h-10.9c.4-22.2-.4-44.4,0-66.6.5-30.8,2.5-61.9,3-92.6.4-20.2-.4-40.5,0-60.7h7.9Z"/>
  </g>
  <g>
    <g>
      <path class="st1" d="M430.3,533.5c2.6,0,4.8,1.9,5,4.6.2,3.1-2.4,5.6-5.5,5.3-2.3-.2-4.1-2-4.3-4.3-.4-2.9,1.9-5.4,4.8-5.5ZM430.3,534.4c-2.4,0-4.2,2.3-3.7,4.7.2,1.6,1.6,2.9,3.2,3.2,2.8.5,5-1.9,4.6-4.6-.4-1.9-2-3.4-4-3.2h-.1Z"/>
      <path class="st1" d="M428.3,535.8h2.3c.8,0,1.7.2,1.8,1.3,0,.6-.1,1.1-.7,1.3h-.2c.5,0,.7.5.8.8l.8,1.6h-1.4c-.2-.4-.4-.8-.6-1.3s-.4-.6-.8-.6h-.4v1.9h-1.3v-5.1h-.2ZM429.6,536.7v1.3h.6c.5,0,.7-.2.7-.7s-.2-.6-.7-.6h-.6Z"/>
    </g>
    <g>
      <path class="st1" d="M280.9,515.6c-2.4-4.9-5.5-9.5-6.8-14.9-1.9-7.5-1.1-16.5,6.6-20.6,13.7-7.3,27.5,9.1,17.7,21.1-3.6,4.3-6.2,4.4-11.4,5-.5,0-.8-.1-.6.6,1,3.2,6.7,8.6,10.3,8.6s4.8-1.9,4.8-3.6v-7.3h10.1c.2,6.6-1.1,15.1-7.8,18.1-1.2.5-4.7,1.3-5.9,1.3h-26.1l-.6-.6v-7.8s9.7,0,9.7,0ZM283.9,501.9c4.8-.7,8.6-5,8.9-9.8.4-7.8-7.8-9-9.9-2-1.3,4.1-.1,7.9,1.2,11.9h-.1Z"/>
      <path class="st1" d="M400.8,478.8v6.5s.7,1.8,1.1,1.9c.4,0,4.8-1.6,6.2-1.7,6.1-.5,12.3.7,15.6,6.3.7,1.2,2.4,5.7,2.4,6.9v25.4h-10.5v-22.9s-1-2.6-1.2-3c-2.2-3.6-8.3-2.6-9.1,1.6-.1.7-.4,4.9-.2,5s3.1,0,3.8,0v5.9s-1.1,0-1.7.2c-1.3.5-3.8,2.3-3.8,3.8v9.5h-8.6l-.6-.6v-12.2s1.1-3.1,1.4-3.6l3.1-2.2-4.7-.5c-.4-4.2.5-7.9,2.2-11.7-5.1-.4-6.1-5-6.3-9.5,0-1-.2-5.3.6-5.3h10.4Z"/>
      <path class="st1" d="M354,524.1h-10.3l-.6-.6v-29.8s-1.7-2.2-2.2-2.5c-4.2-3-8,.4-8.4,5-.4,4.2,0,9.9,0,14.4s.7,2.8-.2,2.8h-10.3v-20.4c0-6.8,9.8-13.3,16.2-13.2,6.3.1,15.8,6.5,15.8,13.2v31.3h0Z"/>
      <path class="st1" d="M267.5,523.7h-10.9v-29.6c0-1.9-3.5-4-5.3-4s-5.3,2.2-5.3,4v19.2h-10.5v-20.8c0-.7,1.9-4.7,2.5-5.5,6.2-9.6,21-9.3,26.9.4.7,1.2,2.4,5.1,2.4,6.3v30.1h.1Z"/>
      <path class="st1" d="M223.7,500.2h-10.9v-10.9h-10.9v13.4h11.4v8h-20.6v-28.7l.6-.6h29.5s1.1,1,1.1,1.1v17.8h-.1Z"/>
      <path class="st1" d="M389,493.4l-9.7,30.7h-10.5l6.3-21.4h-6.3c.1-3.7,5.9-12,1.8-14.6s-3.2.8-4.6,2.4c-.1.2-1.6,1.3-1.7,1.3h-6.5l2.5-12.9c8.5-.7,17.7-.2,20.7,9.2.6,2,.4,4,1.3,5.5h6.6Z"/>
      <path class="st1" d="M322.1,568.7v-34.5h11.1c1,0,3.8,1,4.9,1.4,4.2,2,6.2,6.5,4.7,11-.2.8-1.7,2.4-1.7,2.9s2.5,2.4,3,3.2c3.1,4.4,1.7,11-2.8,14-.7.5-3.7,1.9-4.4,1.9h-15,.1ZM330.1,541.7v5.9c6.8,1,7.1-7.1,0-5.9ZM330.1,554v7.5c2.9-.2,7.7.4,7.5-3.6-.1-4-4.4-4.1-7.5-4Z"/>
      <path class="st1" d="M235.1,534.2v8.9c11.5-5.6,22,4.1,19.2,16-1.9,8.4-11.3,13.3-19,8.7-.5,0-.1,1.3-.2,1.3h-8.4v-34.9h8.5ZM238.3,548.9c-5.4,1.2-6,12.2,1.3,13.3,9.5,1.4,10.2-15.9-1.3-13.3Z"/>
      <path class="st1" d="M224.6,568.7h-9.5l-8.1-21-9,21h-9l13.5-34.6c1-1.3,6.7-.6,8.4-.5l13.9,35.1h-.2Z"/>
      <path class="st1" d="M275.5,569.1s.1-1.1,0-1.3c-.2-.2-2.2,1-2.9,1.2-12.3,3.4-20.4-10.2-15.2-20.6,3.2-6.7,11.3-8.9,17.8-5.3.5,0,.1-1.3.2-1.3h8.4v27.3c-1.2-.2-8.1.4-8.4,0ZM269.5,548.6c-8.1.6-7.3,14,.7,13.8,8.6-.2,8.1-14.5-.7-13.8Z"/>
      <path class="st1" d="M365.4,569.1v-1.3c-11.9,6.2-22.4-6.1-18-17.7,2.6-7.1,11.3-10.3,17.7-6.2.5,0,0-1.3.2-1.3h8.4v26.5c-1.2-.2-8.1.4-8.4,0h0ZM358.1,549.4c-5.4,1.2-5.7,12.5,1.6,12.9,9.1.7,9.1-15.3-1.6-12.9Z"/>
      <path class="st1" d="M410,534.2v13.4c1.4-1.1,2.8-2.5,4.1-3.8s.5-1.3.6-1.3h11.4l-11.4,12.8,12.2,13.3h-10.8s-4.8-6-6.1-6.3v6.3h-8.4v-34.5h8.4Z"/>
      <path class="st1" d="M293.3,541.7c1.3.4,5.7,14,6.5,13.4l5.9-13.4h9.7l-16.6,35.7h-9.5l5.4-11.9c-3.1-7.9-7.1-15.7-9.6-23.8,2.2.4,6.3-.5,8.1,0h.1Z"/>
      <path class="st1" d="M399.9,568.7h-8.4v-15s-.7-2.8-1.1-3.1c-2.3-2.8-6.1,1.3-6.1,4v14.1h-8.4v-26.1h8.4v1.3c4.4-2.9,11.4-2.5,14.1,2.5.5.8,1.4,3.4,1.4,4.1v18.3h0Z"/>
      <polygon class="st1" points="231.3 502.7 231.3 523.4 230.7 524.1 221 524.1 220.4 523.4 220.4 510.6 215.4 510.6 215.4 502.7 231.3 502.7"/>
      <path class="st1" d="M212.8,569.1c-1.1,0-2.3.4-3.1-.4s-2.4-6.6-3-6.7c-.8-.2-.6.4-.8.8-.5,1-2.2,6.1-2.4,6.2-.5.4-2.2,0-2.9,0-.5-.5,4.1-11.6,4.6-12,.6-.4,2.3-.4,2.8.2l4.8,11.7h.1Z"/>
    </g>
  </g>
</svg>