<?xml version="1.0" encoding="UTF-8"?>
<svg id="Layer_1" xmlns="http://www.w3.org/2000/svg" version="1.1" viewBox="0 0 595.3 841.9">
  <!-- Generator: Adobe Illustrator 29.0.0, SVG Export Plug-In . SVG Version: 2.1.0 Build 186)  -->
  <defs>
    <style>
      .st0 {
        fill: #0055b8;
      }

      .st1 {
        fill: #0e80c4;
      }
    </style>
  </defs>
  <path class="st0" d="M248.7,453.3l46.3-127.8h-25.2c18.1-5.1,36-10.3,54.1-15.4,11.6,5.1,23.2,10.3,34.8,15.4h-21.1c-14.8,40.9-29.6,81.8-44.4,122.8,36.3-4.3,72.5-8.5,108.9-12.8,17.6-48.5,35.1-96.9,52.6-145.5l-251,.4-63.5,175.5h2.4c35.4-4.2,71-8.4,106.4-12.4h-.2Z"/>
  <g>
    <path class="st1" d="M244.2,465.6l4.4-12.3c-35.4,4.2-71,8.3-106.4,12.4h101.9Z"/>
    <path class="st1" d="M293,448c-3,8.1-5.9,16.3-8.9,24.4-21.5,59.5-43.1,118.9-64.6,178.4,34.8,0,69.5-.1,104.3-.2,24-66.3,48-132.6,72-198.9,2-5.5,3.9-11,6-16.6-36.3,4.3-72.5,8.5-108.9,12.8h0Z"/>
  </g>
  <g>
    <path class="st0" d="M145.5,258.8c75.3-7.9,150.4-15.9,225.7-23.8l-73.8-10.2h0l-37.8-5.3.5-3.5c-2.4-29.7-26-48.3-70.8-55.9l-25.1-3c5.3,10.6,8.3,23.2,8.3,36.6s0,15.2-5.5,30.4c-5.7,16.3-14.8,27.8-21.4,34.7h.1Z"/>
    <circle class="st0" cx="239.2" cy="224.5" r="3.1"/>
  </g>
</svg>