<?xml version="1.0" encoding="UTF-8"?>
<svg id="Layer_1" xmlns="http://www.w3.org/2000/svg" version="1.1" viewBox="0 0 595.28 841.89">
  <!-- Generator: Adobe Illustrator 29.0.0, SVG Export Plug-In . SVG Version: 2.1.0 Build 186)  -->
  <defs>
    <style>
      .st0 {
        fill: #f4913b;
      }

      .st1 {
        fill: #030265;
      }

      .st2 {
        fill: #fdfcfc;
      }
    </style>
  </defs>
  <path class="st2" d="M246.27,189.79c3.34,3.26,13.36,8.34,17.93,10.75,69.54,36.66,163.38,26.74,236.75,7.18,1.51-.4,3.01.09,4.06-1.79-22.64-25.45-52.32-46.85-83.01-61.67-62-29.93-138.06-36.48-204.54-18.16-3.28.9-18.92,5.15-20.01,6.87.06,2.86,2.24,6.81,3.53,9.42,4.68,9.43,14.98,22.65,22.75,29.78,6.76,6.2,16.93,12.13,22.55,17.61ZM183.62,203.54c-5.79-5.77-12.05-11.96-16.83-18.8-6.28-8.97-9.85-20.39-15.53-28.83-.71-1.06-.65-1.8-2.22-1.44-2.19.51-14.48,8.77-17.35,10.73-40.36,27.64-76.09,68.79-97,113.04,104.75,60.84,233.37,80.75,352.67,59.77,45.6-8.02,92.47-22.8,134.78-41.43,4.59-2.02,33.31-14.86,34.11-17.32,1.25-3.85-10.95-19.92-11.72-25.33l-3.99-3.1c-72.63,10.84-146.86,21.33-220.32,11.53-48.99-6.54-101.04-23.39-136.59-58.84ZM464.65,372.76c1.1-1.1,4.24-2.18,3.62-3.99-34.95,9.99-71.18,20.06-107.38,24.47-90.34,11-164.68-7.25-248.57-37.32-31.72-11.37-62.75-24.64-93.91-37.36-2.5,10.5-5.63,20.84-7.62,31.49-4.72,25.26-5.66,56.6-4.11,82.34.31,5.12,2.2,22.59,3.79,26.56.33.82.57,1.47,1.47,1.8,5.63-1.86,12.77-3.01,18.66-3.37,51.48-3.13,104.95,12,156.37,14.1,106.95,4.37,167-17.04,251.9-78.45,8.15-5.9,19.02-13.54,25.79-20.27ZM580.85,458.59c4.29-23.18,5.97-48.21,4.73-71.81-.25-4.79-4.17-38.55-5.8-39.73-3.69-2.67-23.56,8.19-27.99,10.69-27.34,15.4-53.64,37.8-79.77,55.6-68.73,46.8-138.02,83.32-224.27,87.31-64.19,2.97-122.9-9.13-185.55-11.77-14.03-.59-29.11-.43-42.51,3.68-1.64,2.34,4.88,18.45,6.3,22.02,11.03,27.74,27.73,55.13,47.31,77.55,75.24,11.73,153.67,18.24,226.31-9.29,64.45-24.43,112.67-68.57,168.39-107.02,27.92-19.27,68.07-47.78,101.81-25.44,2.24,1.48,9.8,9.06,11.05,8.19ZM549.04,467.15c-5.24-2.47-5.81,1.97-6.19,1.98-21.53.5-45.69,20.44-63.4,33.35-47.06,34.3-88.93,71.87-141.3,99.1-65.92,34.28-136.56,45.19-210.66,39.06l-.58,2.32c64.29,44.53,142.14,61.59,219.62,48.7,91.08-15.16,172.57-78.56,211.81-161.62,3.63-7.69,15.17-33.66,15.19-40.74.01-4.28-12.5-18.76-16.88-19.92s-3.75-.4-7.62-2.22Z"/>
  <path class="st1" d="M580.85,458.59c-1.25.87-8.81-6.71-11.05-8.19-33.74-22.33-73.9,6.18-101.81,25.44-55.71,38.45-103.94,82.59-168.39,107.02-72.63,27.53-151.07,21.02-226.31,9.29-19.58-22.43-36.28-49.82-47.31-77.55-1.42-3.58-7.94-19.68-6.3-22.02,13.4-4.12,28.48-4.27,42.51-3.68,62.65,2.64,121.35,14.74,185.55,11.77,86.24-4,155.54-40.52,224.27-87.31,26.13-17.79,52.44-40.2,79.77-55.6,4.44-2.5,24.3-13.36,27.99-10.69,1.63,1.18,5.55,34.93,5.8,39.73,1.25,23.6-.44,48.63-4.73,71.81Z"/>
  <path class="st0" d="M183.62,203.54c35.56,35.44,87.6,52.3,136.59,58.84,73.46,9.8,147.69-.68,220.32-11.53l3.99,3.1c.77,5.4,12.97,21.48,11.72,25.33-.8,2.46-29.52,15.3-34.11,17.32-42.31,18.63-89.18,33.41-134.78,41.43-119.3,20.98-247.92,1.07-352.67-59.77,20.91-44.25,56.64-85.4,97-113.04,2.87-1.96,15.16-10.22,17.35-10.73,1.56-.37,1.5.38,2.22,1.44,5.68,8.44,9.26,19.86,15.53,28.83,4.78,6.83,11.04,13.02,16.83,18.8Z"/>
  <path class="st1" d="M549.04,467.15c3.87,1.82,3.41,1.11,7.62,2.22s16.89,15.63,16.88,19.92c-.02,7.08-11.55,33.04-15.19,40.74-39.23,83.06-120.73,146.46-211.81,161.62-77.48,12.9-155.33-4.17-219.62-48.7l.58-2.32c74.1,6.12,144.74-4.78,210.66-39.06,52.37-27.23,94.24-64.8,141.3-99.1,17.71-12.91,41.87-32.85,63.4-33.35.38,0,.95-4.44,6.19-1.98Z"/>
  <path class="st0" d="M464.65,372.76c-6.77,6.74-17.64,14.38-25.79,20.27-84.9,61.41-144.95,82.82-251.9,78.45-51.42-2.1-104.89-17.23-156.37-14.1-5.89.36-13.03,1.51-18.66,3.37-.9-.33-1.14-.98-1.47-1.8-1.59-3.97-3.48-21.44-3.79-26.56-1.55-25.74-.61-57.09,4.11-82.34,1.99-10.65,5.12-20.98,7.62-31.49,31.17,12.72,62.19,25.99,93.91,37.36,83.89,30.07,158.23,48.31,248.57,37.32,36.21-4.41,72.44-14.48,107.38-24.47.62,1.81-2.51,2.89-3.62,3.99Z"/>
  <path class="st0" d="M246.27,189.79c-5.62-5.48-15.79-11.41-22.55-17.61-7.77-7.13-18.07-20.35-22.75-29.78-1.3-2.61-3.48-6.56-3.53-9.42,1.09-1.72,16.74-5.97,20.01-6.87,66.48-18.32,142.55-11.78,204.54,18.16,30.69,14.82,60.37,36.22,83.01,61.67-1.05,1.88-2.55,1.38-4.06,1.79-73.37,19.56-167.21,29.48-236.75-7.18-4.57-2.41-14.58-7.49-17.93-10.75Z"/>
</svg>