<?xml version="1.0" encoding="UTF-8"?>
<svg id="Layer_1" xmlns="http://www.w3.org/2000/svg" version="1.1" viewBox="0 0 595.28 841.89">
  <!-- Generator: Adobe Illustrator 29.0.0, SVG Export Plug-In . SVG Version: 2.1.0 Build 186)  -->
  <defs>
    <style>
      .st0 {
        fill: #f1ab15;
      }
    </style>
  </defs>
  <path class="st0" d="M466.71,331.86c30.72,16.65,61.4,34.53,92.03,51.68,11.64,6.51,23.44,12.42,34.52,19.08.39.24,2.11,1.22,2.01,1.6s-5.56,3.04-6.37,3.5c-25.15,14.28-50.48,28.55-75.88,42.73-16.51,9.22-32.94,18.19-49.39,27.41-2.89-1.44-5.74-2.92-8.58-4.49-35.82-19.71-72.11-40.57-107.36-60.34-5.29-2.97-10.72-5.68-15.9-8.82-.09-.28,1.17-1.14,1.47-1.32,4.57-2.78,9.69-5.13,14.44-7.79,31.61-17.75,64.26-36.1,96.42-54.03,6.54-3.65,12.88-7.51,19.53-10.81,1.04.49,2.08,1.03,3.09,1.57h-.04Z"/>
  <path class="st0" d="M135.69,331.86c32.28,17.59,64.43,36.26,96.24,54.1,10.26,5.75,21,10.95,30.84,16.96.29.17,1.54,1.03,1.47,1.32-1.99,1.39-4.26,2.32-6.37,3.5-33.44,18.73-67.61,38.12-101.8,57.2-7.85,4.38-15.79,8.74-23.66,12.93-4.13-2.27-8.31-4.48-12.48-6.79-37.87-21.01-75.61-42.24-112.79-63.35-.82-.46-6.28-3.15-6.37-3.5s1.61-1.37,2.01-1.6c1.38-.83,2.95-1.4,4.37-2.2,26.54-15.02,54.06-30.33,81.01-45.38,14.8-8.27,29.44-16.84,44.47-24.76,1.04.49,2.08,1.03,3.09,1.57h-.02Z"/>
  <polygon class="st0" points="446.63 157.18 447.39 303.38 314.9 376.04 314.27 229.42 446.63 157.18"/>
  <path class="st0" d="M317.17,433.16c29.4,15.73,59.03,32.28,88.33,48.37,14.08,7.74,27.96,15.36,41.89,23.23l-.74,146.08-132.38-72.12c-.76-1.86,0-3.85.04-5.67.77-44.58-.95-89.35.6-133.86.09-2.36-.09-4.74,0-7.09.16-.17,1.93.85,2.28,1.04h-.01Z"/>
  <polygon class="st0" points="281.13 432.12 281.75 578.74 149.41 650.97 148.62 504.76 281.13 432.12"/>
  <path class="st0" d="M169.45,167.86c27.51,15.04,55.19,30.36,82.99,45.65,9.63,5.3,19.56,10.54,29.31,15.91l-.63,146.62-132.49-72.66c-.2-13.92-.26-27.85-.16-41.77.22-34.41.99-68.9.65-103.36l.28-1.07.9.12c6.31,3.65,12.76,7.06,19.16,10.56h0Z"/>
</svg>