<?xml version="1.0" encoding="UTF-8"?>
<svg id="Layer_1" xmlns="http://www.w3.org/2000/svg" version="1.1" viewBox="0 0 595.3 841.9">
  <!-- Generator: Adobe Illustrator 29.0.0, SVG Export Plug-In . SVG Version: 2.1.0 Build 186)  -->
  <defs>
    <style>
      .st0 {
        fill: #561a1a;
      }
    </style>
  </defs>
  <path class="st0" d="M285.3,157.5c-58.7,3.2-113.4,26.5-156,66.5-69.6,65.4-95.3,164.6-66.2,255.8,2.4,7.2,2.5,7.7,4.6,9.7,2.3,2.4,4.1,3.1,7.4,3.1s3.6-.4,11.1-5.3c27.7-17.5,57.9-31.4,90.7-42.1,10.1-3.2,11.6-4.1,13.3-7.3,1.2-2.4,1.2-6-.1-12.5-1.6-7.3-2-12.1-2-21.7s1.3-21,4.4-31.3c12.8-42.5,50-73.3,94.3-78,7-.7,22.4-.2,29,.8,23.5,4.1,43.9,14.5,60.4,31,14.4,14.4,24.2,31.9,29.1,51.5,2.5,10.1,3,14.4,3,25.9s-.4,14.5-2.2,23c-1.7,7.9-1.2,10.8,2.3,13.9,1.8,1.7,2.3,1.8,12.7,5.2,30.8,9.8,60.8,23.8,89.5,41.8,7.1,4.4,8.3,4.9,10.8,4.9,4.9,0,8.5-2.8,10.2-7.6,9-26.2,13.4-52.5,13.4-80.7s-3-45.9-9.5-68.4c-21.7-75.6-78.7-136.9-152.7-163.8-30.9-11.3-65-16.3-97.6-14.6h-.1Z"/>
  <path class="st0" d="M278.1,461.2c-34.9,2.3-64.6,7.9-95.9,18.5-28.3,9.5-55,22.2-79.7,37.9-12.3,7.9-24.8,16.8-26.8,19.2-2.5,3-3,7.6-1.1,11.3,1.2,2.3,7.6,11.5,9.6,13.8,1.8,2.2,4.2,3.4,7.1,3.7,3,.4,5-.5,9.6-3.8,2-1.6,4-2.8,4.3-2.8s1.1.6,1.7,1.3c23.1,27.8,50,49.4,80.9,64.8,27.2,13.7,54.5,21.6,86.3,25,8.3.8,30.9,1.2,40,.6,52.6-3.6,100.2-22.4,140.7-55.5,11.1-9.2,23.8-21.6,32.6-32.2,1.9-2.3,3.6-4.1,4-4.1s2.3,1.2,4.3,2.8c2,1.6,4.4,3,5.3,3.4,4.1,1.4,8.7,0,11.5-3.2,3.8-4.7,9.6-13.7,10.3-15.8.8-2.8.4-5.8-1.2-8.3-1.7-2.6-21-16.3-34.8-24.4-32.5-19.3-64.7-32.7-100.8-41.6-20.5-5-36.9-7.8-59.3-9.7-9-.7-39.8-1.1-48.5-.6h0Z"/>
</svg>