<?xml version="1.0" encoding="UTF-8"?>
<svg id="Layer_1" data-name="Layer 1" xmlns="http://www.w3.org/2000/svg" viewBox="0 0 589.27 268.03">
  <defs>
    <style>
      .cls-1 {
        fill: #fff;
      }

      .cls-2 {
        fill: #f27423;
      }
    </style>
  </defs>
  <path class="cls-1" d="M383.99,12.42c-35.31-24.35-86.01-11.66-104,27.32-26.09,56.55,24.99,116.02,84.61,98.15,56.11-16.82,67.23-92.48,19.39-125.47ZM296.57,11.51h-69.95c-18.07,0-41.15,20.18-47.21,36.61-15.65,42.44,13.29,79.92,56.85,82.05,19.95.97,40.94-.53,60.95-.35-6.53-5.37-12.69-11-17.18-18.28-28.98-2.62-64.14,9.64-81.33-21.18-14.36-25.74,3.07-58.52,32.41-60.82,15.75-1.23,33,1.05,48.92-.08,4.27-7.06,10.68-12.28,16.54-17.95ZM217.47,215.44c5.44-5.88,19.47.56,24.53,4.91l8.1-8.57c-10.37-13.43-45.84-15.28-47.65,5.72-1.42,16.42,15.91,18.51,26.67,24.25,3.18,1.7,7.71,4.72,6.57,8.95-2.17,8.06-13.77,6.16-19.5,3.33-1.77-.87-7.75-5.93-8.27-5.94-.68,0-1.22.47-1.66.95l-7.03,7.76c11.06,15.41,50.52,16.67,50.85-7.14.15-11.21-10.28-15.67-18.83-19.71-4.18-1.98-21.09-6.62-13.78-14.51ZM516.42,216.52c-5.7-12.08-20.56-16.64-33.02-13.99-32.12,6.81-36.2,50.79-5.63,62.65,13.69,5.31,31.74,2.39,38.37-11.91l-9.05-6.46c-10.21,16.04-34.16,10.21-36.37-8.76-2.63-22.54,23.45-34.41,36.05-15.09l9.65-6.46ZM45.78,202.35H.97l-.97.97v63.18l.97.97h46.1v-11.6H14.18v-16.76h25.79v-10.96H14.18v-14.83h31.59v-10.96ZM112.18,202.35h-49.64v10.96h17.09l.97.97v53.19h13.54v-53.19l.97-.97h17.09v-10.96ZM141.19,202.35h-12.89v65.12h12.89v-27.08h27.72v27.08h13.54v-65.12h-13.54v27.08h-26.76l-.97-.97v-26.11ZM275.62,202.35h-13.22l22.65,65.03c2.28-.13,6.85.98,8.24-.94l14.23-36.37,13.84,37.44,7.38-.11,22.63-65.05h-14.18l-12.26,37.39-13.84-36.76-7.78-.68-14.14,37.43-13.54-37.39ZM379.74,202.35h-14.18v65.12h14.18v-65.12ZM445.5,202.35h-49.64v11.6h18.05v53.51h14.18v-53.51h17.41v-11.6ZM548.01,202.35h-13.54v65.12h13.54v-26.11l.97-.97h25.79l.97.97v26.11h13.54v-65.12h-13.54v26.43h-27.72v-26.43Z"/>
  <path d="M296.57,11.51c-5.86,5.68-12.27,10.89-16.54,17.95-15.92,1.13-33.17-1.16-48.92.08-29.34,2.3-46.77,35.09-32.41,60.82,17.19,30.82,52.35,18.56,81.33,21.18,4.5,7.28,10.65,12.91,17.18,18.28-20.02-.18-41.01,1.32-60.95.35-43.56-2.13-72.5-39.61-56.85-82.05,6.06-16.43,29.13-36.61,47.21-36.61h69.95Z"/>
  <path class="cls-2" d="M383.99,12.42c47.84,32.99,36.72,108.65-19.39,125.47-59.62,17.87-110.7-41.6-84.61-98.15C297.98.76,348.68-11.94,383.99,12.42ZM382.71,22.75c-51.89-40.32-121.83,14.67-95.35,73.09,22.12,48.8,91.15,48.03,112.92-.92,10.75-24.17,3.38-55.88-17.57-72.16Z"/>
  <path d="M275.62,202.35l13.54,37.39,14.14-37.43,7.78.68,13.84,36.76,12.26-37.39h14.18l-22.63,65.05-7.38.11-13.84-37.44-14.23,36.37c-1.39,1.92-5.96.81-8.24.94l-22.65-65.03h13.22Z"/>
  <polygon points="548.01 202.35 548.01 228.78 575.74 228.78 575.74 202.35 589.27 202.35 589.27 267.46 575.74 267.46 575.74 241.35 574.77 240.39 548.98 240.39 548.01 241.35 548.01 267.46 534.47 267.46 534.47 202.35 548.01 202.35"/>
  <polygon class="cls-2" points="141.19 202.35 141.19 228.46 142.16 229.43 168.92 229.43 168.92 202.35 182.46 202.35 182.46 267.46 168.92 267.46 168.92 240.39 141.19 240.39 141.19 267.46 128.3 267.46 128.3 202.35 141.19 202.35"/>
  <polygon class="cls-2" points="45.78 202.35 45.78 213.31 14.18 213.31 14.18 228.14 39.97 228.14 39.97 239.1 14.18 239.1 14.18 255.86 47.06 255.86 47.06 267.46 .97 267.46 0 266.5 0 203.31 .97 202.35 45.78 202.35"/>
  <path d="M217.47,215.44c-7.31,7.9,9.6,12.53,13.78,14.51,8.55,4.04,18.98,8.5,18.83,19.71-.32,23.81-39.79,22.55-50.85,7.14l7.03-7.76c.44-.48.98-.95,1.66-.95.52,0,6.5,5.06,8.27,5.94,5.73,2.83,17.33,4.73,19.5-3.33,1.14-4.23-3.39-7.25-6.57-8.95-10.75-5.74-28.09-7.83-26.67-24.25,1.81-21,37.28-19.15,47.65-5.72l-8.1,8.57c-5.06-4.36-19.09-10.8-24.53-4.91Z"/>
  <path d="M516.42,216.52l-9.65,6.46c-12.6-19.33-38.68-7.45-36.05,15.09,2.21,18.96,26.16,24.79,36.37,8.76l9.05,6.46c-6.63,14.3-24.68,17.22-38.37,11.91-30.57-11.87-26.49-55.84,5.63-62.65,12.46-2.64,27.32,1.91,33.02,13.99Z"/>
  <polygon points="445.5 202.35 445.5 213.95 428.09 213.95 428.09 267.46 413.91 267.46 413.91 213.95 395.86 213.95 395.86 202.35 445.5 202.35"/>
  <polygon class="cls-2" points="112.18 202.35 112.18 213.31 95.1 213.31 94.13 214.28 94.13 267.46 80.59 267.46 80.59 214.28 79.62 213.31 62.54 213.31 62.54 202.35 112.18 202.35"/>
  <rect x="365.56" y="202.35" width="14.18" height="65.12"/>
  <path class="cls-1" d="M382.71,22.75c20.96,16.28,28.32,47.99,17.57,72.16-21.77,48.95-90.8,49.73-112.92.92-26.48-58.42,43.46-113.41,95.35-73.09ZM381.41,27.91c-43.31-37.63-109.47,5-91.94,60.01,15.04,47.21,79.97,53.27,103.92,9.77,12.51-22.72,7.68-52.7-11.98-69.78Z"/>
  <path class="cls-2" d="M381.41,27.91c19.66,17.08,24.5,47.06,11.98,69.78-23.96,43.5-88.88,37.45-103.92-9.77-17.53-55.01,48.63-97.64,91.94-60.01Z"/>
</svg>