<svg xmlns="http://www.w3.org/2000/svg" width="1330" height="1330" viewBox="0 0 35 35"><rect fill="#FFFFFF" x="0" y="0" width="35" height="35" /><path fill="#000000" d="M5 5h7v7h-7zM13 5h1v1h-1zM16 5h1v2h-1v1h-1v-2h1zM19 5h1v1h-1zM21 5h1v2h-1zM23 5h7v7h-7zM6 6v5h5v-5zM24 6v5h5v-5zM7 7h3v3h-3zM13 7h1v1h1v3h-1v-1h-1zM17 7h2v2h1v-1h1v1h1v4h1v1h-1v1h-1v-1h-2v-4h-1v2h-1v-3h-1v-1h1zM25 7h3v3h-3zM20 10v3h1v-3zM13 11h1v1h-1zM15 11h1v1h-1zM14 12h1v1h-1zM16 12h1v1h-1zM5 13h4v1h1v3h-1v-1h-1v-1h-1v1h-1v1h-1zM11 13h1v1h-1zM13 13h1v1h1v1h-2zM25 13h3v1h-3zM29 13h1v1h-1zM16 14h1v2h-1zM24 14h1v1h1v1h2v1h2v2h-1v-1h-2v-1h-1v4h3v-1h1v7h-1v1h-1v1h2v1h-8v-1h3v-3h-1v2h-2v-1h-1v-2h-1v-1h1v-3h1v-1h1v-2h-1v-3h1v2h1zM28 14h1v1h-1zM11 15h2v1h1v1h1v1h-2v-1h-1v-1h-1zM18 15h2v3h2v1h-2v1h1v1h-2v-2h-1v2h1v1h-1v3h-1v-2h-1v-3h1v-2h1v-1h-1v-1h1zM7 16h1v3h-1zM10 17h2v1h-1v1h-2v-1h1zM12 18h1v1h-1zM15 18h1v2h-1zM6 19h1v1h-1zM8 19h1v2h-1zM11 19h1v1h-1zM24 19v1h1v-1zM27 19h2v1h-2zM5 20h1v1h-1zM10 20h1v1h-1zM14 20h1v2h-1zM7 21h1v1h-1zM9 21h1v1h-1zM11 21h1v1h-1zM13 22h1v1h-1zM22 22v3h3v-3zM26 22v3h1v1h1v-2h-1v-2zM28 22v1h1v-1zM5 23h7v7h-7zM14 23h2v2h-1v1h-1zM19 23h1v1h-1zM23 23h1v1h-1zM6 24v5h5v-5zM7 25h3v3h-3zM16 25h1v2h1v-1h1v2h1v-1h1v2h-1v1h-7v-4h1v1h1v1h-1v1h1v-1h1v1h2v-1h-2zM26 27v2h1v-2z"/></svg>