<?xml version="1.0" encoding="UTF-8"?>
<svg id="Layer_1" xmlns="http://www.w3.org/2000/svg" version="1.1" viewBox="0 0 595.3 841.9">
  <!-- Generator: Adobe Illustrator 29.0.0, SVG Export Plug-In . SVG Version: 2.1.0 Build 186)  -->
  <defs>
    <style>
      .st0 {
        fill: #f16122;
      }

      .st1 {
        fill: #ea1f25;
      }

      .st2 {
        fill: #f69e1e;
      }
    </style>
  </defs>
  <path class="st1" d="M297.5,245.7v2.5c-5.6.3-31.5,31-35.9,37.2-56.1,79.4-38.6,185.7,35.9,246.1.2.2-.2,1.1,0,1.3-106.3,83.1-267.4,23.3-290.6-110.3-22-126.3,83.5-231.5,209.5-212.1,29.7,4.6,56.7,18.4,81,35.2Z"/>
  <path class="st2" d="M297.5,532.8c-.2-.2.2-1.1,0-1.3,35.2-26.8,60-68.7,67.1-112.6,8.8-54.1-7.9-110.4-44.3-151-3.3-3.7-19.2-20-22.8-19.7v-2.5c134-100.3,322.4,12.5,290.6,179.4-25,131-185.7,191.2-290.6,107.7Z"/>
  <path class="st0" d="M297.5,531.6c-74.5-60.4-92-166.7-35.9-246.1,4.4-6.2,30.2-36.8,35.9-37.2s19.5,16,22.8,19.7c36.4,40.6,53.1,96.9,44.3,151-7.1,43.9-31.9,85.8-67.1,112.6Z"/>
</svg>