<?xml version="1.0" encoding="UTF-8"?>
<svg id="Layer_1" xmlns="http://www.w3.org/2000/svg" version="1.1" viewBox="0 0 595.28 841.89">
  <!-- Generator: Adobe Illustrator 29.0.0, SVG Export Plug-In . SVG Version: 2.1.0 Build 186)  -->
  <defs>
    <style>
      .st0 {
        fill: #ea011c;
      }

      .st1 {
        fill: #f69e1c;
      }

      .st2 {
        fill: #fe5f00;
      }
    </style>
  </defs>
  <path class="st0" d="M297.56,293.51c-.42.34.42,2.2,0,2.55-91.02,76.25-94.38,211.48,0,285.54v5.1c-15.63,7.2-29.77,17.93-45.94,24.17-99.24,38.32-212.24-14.92-242.82-116.56-52.19-173.46,144.72-307.1,288.76-200.8Z"/>
  <path class="st1" d="M297.56,586.7v-5.1c93.17-68.71,90.89-215.53,0-285.54.42-.35-.42-2.21,0-2.55,127.62-102.82,320.62,11.81,295.49,174.38-21.48,138.94-182.91,199.59-295.49,118.81Z"/>
  <path class="st2" d="M297.56,581.6c-94.38-74.07-91.02-209.3,0-285.54,90.89,70.01,93.17,216.83,0,285.54Z"/>
</svg>