<?xml version="1.0" encoding="UTF-8"?>
<svg id="Layer_1" xmlns="http://www.w3.org/2000/svg" version="1.1" viewBox="0 0 595.28 841.89">
  <!-- Generator: Adobe Illustrator 29.0.0, SVG Export Plug-In . SVG Version: 2.1.0 Build 186)  -->
  <defs>
    <style>
      .st0 {
        fill: #fff;
      }

      .st1 {
        fill: #ff0015;
      }

      .st2 {
        fill: #fffeff;
      }
    </style>
  </defs>
  <path class="st1" d="M548.95,342.38v34.52l-5.17,33.28c-19.47,95.78-97.06,174.77-192.94,194.77l-35.83,5.78c-11.37-.57-23.24.78-34.54,0-220.56-15.13-316.18-291.66-149.98-439.45,154.88-137.74,403.12-36.22,417.02,168.6l1.45,2.49ZM376.06,242.12c-107.28-71.58-246.83,19.73-220.47,147.39,1.76,8.55,5.95,16.37,7.13,25.06l14.12-4.73c-44.74-109.02,64.39-216.03,173.27-166.1,6.32,2.9,12.23,6.39,17.79,10.57,3,.48,9.75-9.49,8.17-12.18ZM424.54,262.71c-6.34-6.07-22.9-1.96-30.18-1.87-37.32.48-74.21,2.19-111.53-.08-7.15-.44-41.58-5.99-44.79-3.93-1.5.96-1.83,2.21-1.53,3.92,11.28,9.39,79.84,26.15,84.03,34.54,2.82,5.63-2.64,9.08-6.37,12.51-43.72,40.23-115.46,73.97-144.91,129.79-7.95,15.08-17.88,43.5,9.56,39.36,19.25-2.9,47.68-15.64,68.33-21.14,68.85-18.34,143.08-28,204.96,15.52,4.82,3.39,25.94,24.58,30.88,20.12-11.73-30.52-44.43-54.05-73.84-66.63-55.82-23.88-116.13-20.26-172.65-.84-2.58-2.65,6.68-10.79,8.58-12.59,47.92-45.36,116.18-77.33,164.14-121.56,4.98-4.59,22.41-20.31,15.3-27.12ZM423.28,296.91c-1.69-1.22-12.8,3.24-12.46,6.91,15.46,35.62,17.04,76.84-1.46,111.55l11.66,6.88c22.44-38.06,19.23-85.68,2.26-125.34ZM224,483.54c53.6,28.64,128.38,23.25,169.39-24.04l-8.52-8.78c-42.2,40.63-103.68,46.82-155.29,20.21l-5.58,12.61Z"/>
  <path class="st2" d="M424.54,262.71c7.11,6.81-10.32,22.53-15.3,27.12-47.96,44.23-116.22,76.2-164.14,121.56-1.9,1.8-11.16,9.94-8.58,12.59,56.52-19.41,116.83-23.04,172.65.84,29.41,12.58,62.11,36.12,73.84,66.63-4.94,4.46-26.06-16.73-30.88-20.12-61.88-43.52-136.11-33.86-204.96-15.52-20.65,5.5-49.08,18.24-68.33,21.14-27.44,4.14-17.52-24.28-9.56-39.36,29.45-55.82,101.19-89.56,144.91-129.79,3.74-3.44,9.19-6.88,6.37-12.51-4.2-8.39-72.76-25.16-84.03-34.54-.3-1.71.03-2.96,1.53-3.92,3.22-2.06,37.64,3.5,44.79,3.93,37.31,2.27,74.21.56,111.53.08,7.28-.09,23.84-4.2,30.18,1.87Z"/>
  <path class="st0" d="M376.06,242.12c1.58,2.69-5.17,12.66-8.17,12.18-5.56-4.17-11.47-7.67-17.79-10.57-108.88-49.93-218.01,57.08-173.27,166.1l-14.12,4.73c-1.18-8.68-5.37-16.51-7.13-25.06-26.36-127.66,113.19-218.97,220.47-147.39Z"/>
  <path class="st0" d="M224,483.54l5.58-12.61c51.61,26.61,113.09,20.41,155.29-20.21l8.52,8.78c-41.02,47.28-115.79,52.68-169.39,24.04Z"/>
  <path class="st0" d="M423.28,296.91c16.97,39.67,20.18,87.29-2.26,125.34l-11.66-6.88c18.5-34.71,16.92-75.94,1.46-111.55-.33-3.67,10.78-8.14,12.46-6.91Z"/>
</svg>